<mxfile host="app.diagrams.net" modified="2022-06-18T13:26:30.303Z" agent="5.0 (Windows NT 10.0; Win64; x64) AppleWebKit/537.36 (KHTML, like Gecko) Chrome/102.0.0.0 Safari/537.36" etag="WefaM3ocPemCBIGAlwHd" version="20.0.1" type="github">
  <diagram id="prtHgNgQTEPvFCAcTncT" name="Page-1">
    <mxGraphModel dx="1038" dy="579" grid="1" gridSize="10" guides="1" tooltips="1" connect="1" arrows="1" fold="1" page="1" pageScale="1" pageWidth="827" pageHeight="1169" math="0" shadow="0">
      <root>
        <mxCell id="0" />
        <mxCell id="1" parent="0" />
        <mxCell id="dNxyNK7c78bLwvsdeMH5-11" value="&lt;p class=&quot;MsoNormal&quot;&gt;&lt;span&gt;&lt;font face=&quot;宋体&quot;&gt;员工薪资管理系统功能层次图&amp;nbsp; by张添禹&lt;/font&gt;&lt;/span&gt;&lt;/p&gt;" style="swimlane;html=1;startSize=20;horizontal=1;containerType=tree;glass=0;" parent="1" vertex="1">
          <mxGeometry x="70" y="70" width="710" height="450" as="geometry" />
        </mxCell>
        <mxCell id="nqi2gOL9OYWzApXovjx8-7" style="edgeStyle=orthogonalEdgeStyle;rounded=0;orthogonalLoop=1;jettySize=auto;html=1;fontSize=15;" edge="1" parent="dNxyNK7c78bLwvsdeMH5-11" source="nqi2gOL9OYWzApXovjx8-1" target="nqi2gOL9OYWzApXovjx8-3">
          <mxGeometry relative="1" as="geometry" />
        </mxCell>
        <mxCell id="nqi2gOL9OYWzApXovjx8-18" style="edgeStyle=orthogonalEdgeStyle;rounded=0;orthogonalLoop=1;jettySize=auto;html=1;entryX=0.5;entryY=0;entryDx=0;entryDy=0;fontSize=15;exitX=0.5;exitY=1;exitDx=0;exitDy=0;" edge="1" parent="dNxyNK7c78bLwvsdeMH5-11" source="nqi2gOL9OYWzApXovjx8-1" target="nqi2gOL9OYWzApXovjx8-4">
          <mxGeometry relative="1" as="geometry" />
        </mxCell>
        <mxCell id="nqi2gOL9OYWzApXovjx8-1" value="&lt;p class=&quot;MsoNormal&quot;&gt;&lt;b&gt;&lt;span style=&quot;font-family: 宋体; font-size: 16pt;&quot;&gt;员工薪资管理系统&lt;/span&gt;&lt;/b&gt;&lt;/p&gt;" style="rounded=0;whiteSpace=wrap;html=1;" vertex="1" parent="dNxyNK7c78bLwvsdeMH5-11">
          <mxGeometry x="260" y="60" width="190" height="40" as="geometry" />
        </mxCell>
        <mxCell id="nqi2gOL9OYWzApXovjx8-33" style="edgeStyle=orthogonalEdgeStyle;rounded=0;orthogonalLoop=1;jettySize=auto;html=1;fontFamily=Helvetica;fontSize=15;exitX=0.5;exitY=1;exitDx=0;exitDy=0;" edge="1" parent="dNxyNK7c78bLwvsdeMH5-11" source="nqi2gOL9OYWzApXovjx8-3" target="nqi2gOL9OYWzApXovjx8-27">
          <mxGeometry relative="1" as="geometry" />
        </mxCell>
        <mxCell id="nqi2gOL9OYWzApXovjx8-34" style="edgeStyle=orthogonalEdgeStyle;rounded=0;orthogonalLoop=1;jettySize=auto;html=1;entryX=0.5;entryY=0;entryDx=0;entryDy=0;fontFamily=Helvetica;fontSize=15;" edge="1" parent="dNxyNK7c78bLwvsdeMH5-11" source="nqi2gOL9OYWzApXovjx8-3" target="nqi2gOL9OYWzApXovjx8-28">
          <mxGeometry relative="1" as="geometry" />
        </mxCell>
        <mxCell id="nqi2gOL9OYWzApXovjx8-35" style="edgeStyle=orthogonalEdgeStyle;rounded=0;orthogonalLoop=1;jettySize=auto;html=1;entryX=0.5;entryY=0;entryDx=0;entryDy=0;fontFamily=Helvetica;fontSize=15;" edge="1" parent="dNxyNK7c78bLwvsdeMH5-11" source="nqi2gOL9OYWzApXovjx8-3" target="nqi2gOL9OYWzApXovjx8-32">
          <mxGeometry relative="1" as="geometry" />
        </mxCell>
        <mxCell id="nqi2gOL9OYWzApXovjx8-36" style="edgeStyle=orthogonalEdgeStyle;rounded=0;orthogonalLoop=1;jettySize=auto;html=1;entryX=0.5;entryY=0;entryDx=0;entryDy=0;fontFamily=Helvetica;fontSize=15;" edge="1" parent="dNxyNK7c78bLwvsdeMH5-11" source="nqi2gOL9OYWzApXovjx8-3" target="nqi2gOL9OYWzApXovjx8-31">
          <mxGeometry relative="1" as="geometry" />
        </mxCell>
        <mxCell id="nqi2gOL9OYWzApXovjx8-43" style="edgeStyle=orthogonalEdgeStyle;rounded=0;orthogonalLoop=1;jettySize=auto;html=1;entryX=0.5;entryY=0;entryDx=0;entryDy=0;fontFamily=Helvetica;fontSize=15;" edge="1" parent="dNxyNK7c78bLwvsdeMH5-11" source="nqi2gOL9OYWzApXovjx8-3" target="nqi2gOL9OYWzApXovjx8-42">
          <mxGeometry relative="1" as="geometry" />
        </mxCell>
        <mxCell id="nqi2gOL9OYWzApXovjx8-3" value="薪资管理" style="rounded=0;whiteSpace=wrap;html=1;fontSize=15;" vertex="1" parent="dNxyNK7c78bLwvsdeMH5-11">
          <mxGeometry x="285" y="180" width="140" height="40" as="geometry" />
        </mxCell>
        <mxCell id="nqi2gOL9OYWzApXovjx8-4" value="统计分析" style="rounded=0;whiteSpace=wrap;html=1;fontSize=15;" vertex="1" parent="dNxyNK7c78bLwvsdeMH5-11">
          <mxGeometry x="530" y="180" width="140" height="40" as="geometry" />
        </mxCell>
        <mxCell id="nqi2gOL9OYWzApXovjx8-23" style="edgeStyle=orthogonalEdgeStyle;rounded=0;orthogonalLoop=1;jettySize=auto;html=1;entryX=0.5;entryY=0;entryDx=0;entryDy=0;fontSize=15;" edge="1" parent="dNxyNK7c78bLwvsdeMH5-11" source="nqi2gOL9OYWzApXovjx8-2" target="nqi2gOL9OYWzApXovjx8-19">
          <mxGeometry relative="1" as="geometry" />
        </mxCell>
        <mxCell id="nqi2gOL9OYWzApXovjx8-24" style="edgeStyle=orthogonalEdgeStyle;rounded=0;orthogonalLoop=1;jettySize=auto;html=1;entryX=0.5;entryY=0;entryDx=0;entryDy=0;fontSize=15;" edge="1" parent="dNxyNK7c78bLwvsdeMH5-11" source="nqi2gOL9OYWzApXovjx8-2" target="nqi2gOL9OYWzApXovjx8-20">
          <mxGeometry relative="1" as="geometry" />
        </mxCell>
        <mxCell id="nqi2gOL9OYWzApXovjx8-25" style="edgeStyle=orthogonalEdgeStyle;rounded=0;orthogonalLoop=1;jettySize=auto;html=1;entryX=0.5;entryY=0;entryDx=0;entryDy=0;fontSize=15;" edge="1" parent="dNxyNK7c78bLwvsdeMH5-11" source="nqi2gOL9OYWzApXovjx8-2" target="nqi2gOL9OYWzApXovjx8-21">
          <mxGeometry relative="1" as="geometry" />
        </mxCell>
        <mxCell id="nqi2gOL9OYWzApXovjx8-26" style="edgeStyle=orthogonalEdgeStyle;rounded=0;orthogonalLoop=1;jettySize=auto;html=1;entryX=0.5;entryY=0;entryDx=0;entryDy=0;fontSize=15;" edge="1" parent="dNxyNK7c78bLwvsdeMH5-11" source="nqi2gOL9OYWzApXovjx8-2" target="nqi2gOL9OYWzApXovjx8-22">
          <mxGeometry relative="1" as="geometry" />
        </mxCell>
        <mxCell id="nqi2gOL9OYWzApXovjx8-2" value="员工信息管理" style="rounded=0;whiteSpace=wrap;html=1;fontSize=15;" vertex="1" parent="dNxyNK7c78bLwvsdeMH5-11">
          <mxGeometry x="50" y="180" width="140" height="40" as="geometry" />
        </mxCell>
        <mxCell id="nqi2gOL9OYWzApXovjx8-16" value="" style="edgeStyle=orthogonalEdgeStyle;rounded=0;orthogonalLoop=1;jettySize=auto;html=1;entryX=0.5;entryY=0;entryDx=0;entryDy=0;exitX=0.5;exitY=1;exitDx=0;exitDy=0;" edge="1" source="nqi2gOL9OYWzApXovjx8-1" target="nqi2gOL9OYWzApXovjx8-2" parent="dNxyNK7c78bLwvsdeMH5-11">
          <mxGeometry relative="1" as="geometry" />
        </mxCell>
        <mxCell id="nqi2gOL9OYWzApXovjx8-19" value="添加员工信息" style="rounded=0;whiteSpace=wrap;html=1;fontSize=15;" vertex="1" parent="dNxyNK7c78bLwvsdeMH5-11">
          <mxGeometry x="40" y="280" width="40" height="90" as="geometry" />
        </mxCell>
        <mxCell id="nqi2gOL9OYWzApXovjx8-22" value="查询员工信息" style="rounded=0;whiteSpace=wrap;html=1;fontSize=15;" vertex="1" parent="dNxyNK7c78bLwvsdeMH5-11">
          <mxGeometry x="160" y="280" width="40" height="90" as="geometry" />
        </mxCell>
        <mxCell id="nqi2gOL9OYWzApXovjx8-21" value="修改员工信息" style="rounded=0;whiteSpace=wrap;html=1;fontSize=15;" vertex="1" parent="dNxyNK7c78bLwvsdeMH5-11">
          <mxGeometry x="120" y="280" width="40" height="90" as="geometry" />
        </mxCell>
        <mxCell id="nqi2gOL9OYWzApXovjx8-20" value="删除员工信息" style="rounded=0;whiteSpace=wrap;html=1;fontSize=15;" vertex="1" parent="dNxyNK7c78bLwvsdeMH5-11">
          <mxGeometry x="80" y="280" width="40" height="90" as="geometry" />
        </mxCell>
        <mxCell id="nqi2gOL9OYWzApXovjx8-27" value="&lt;p class=&quot;MsoNormal&quot;&gt;&lt;span&gt;基本工资&lt;/span&gt;&lt;span style=&quot;background-color: initial;&quot;&gt;修改&lt;/span&gt;&lt;/p&gt;" style="rounded=0;whiteSpace=wrap;html=1;fontSize=15;" vertex="1" parent="dNxyNK7c78bLwvsdeMH5-11">
          <mxGeometry x="255.5" y="275" width="40" height="100" as="geometry" />
        </mxCell>
        <mxCell id="nqi2gOL9OYWzApXovjx8-28" value="&lt;p class=&quot;MsoNormal&quot;&gt;&lt;span style=&quot;background-color: initial;&quot;&gt;补贴奖励&lt;/span&gt;&lt;span style=&quot;background-color: initial;&quot;&gt;修改&lt;/span&gt;&lt;/p&gt;" style="rounded=0;whiteSpace=wrap;html=1;fontSize=15;" vertex="1" parent="dNxyNK7c78bLwvsdeMH5-11">
          <mxGeometry x="295.5" y="275" width="39" height="100" as="geometry" />
        </mxCell>
        <mxCell id="nqi2gOL9OYWzApXovjx8-32" value="&lt;p class=&quot;MsoNormal&quot;&gt;&lt;span style=&quot;font-size: 12pt; background-color: initial;&quot;&gt;计算实际工资&lt;/span&gt;&lt;/p&gt;" style="rounded=0;whiteSpace=wrap;html=1;fontSize=15;" vertex="1" parent="dNxyNK7c78bLwvsdeMH5-11">
          <mxGeometry x="374.5" y="275" width="40" height="100" as="geometry" />
        </mxCell>
        <mxCell id="nqi2gOL9OYWzApXovjx8-31" value="&lt;p class=&quot;MsoNormal&quot;&gt;&lt;span style=&quot;font-size: 12pt; background-color: initial;&quot;&gt;保险&lt;/span&gt;&lt;span style=&quot;background-color: initial; font-size: 12pt;&quot;&gt;积金&lt;/span&gt;&lt;span style=&quot;background-color: initial;&quot;&gt;修改&lt;/span&gt;&lt;/p&gt;" style="rounded=0;whiteSpace=wrap;html=1;fontSize=15;" vertex="1" parent="dNxyNK7c78bLwvsdeMH5-11">
          <mxGeometry x="334.5" y="275" width="40" height="100" as="geometry" />
        </mxCell>
        <mxCell id="nqi2gOL9OYWzApXovjx8-37" value="最高&lt;br&gt;最低&lt;br&gt;平均&lt;br&gt;工资" style="rounded=0;whiteSpace=wrap;html=1;fontFamily=Helvetica;fontSize=15;" vertex="1" parent="dNxyNK7c78bLwvsdeMH5-11">
          <mxGeometry x="501" y="270" width="60" height="100" as="geometry" />
        </mxCell>
        <mxCell id="nqi2gOL9OYWzApXovjx8-39" value="员工&lt;br&gt;工资&lt;br&gt;明细&lt;br&gt;视图" style="rounded=0;whiteSpace=wrap;html=1;fontFamily=Helvetica;fontSize=15;" vertex="1" parent="dNxyNK7c78bLwvsdeMH5-11">
          <mxGeometry x="561" y="270" width="49" height="100" as="geometry" />
        </mxCell>
        <mxCell id="nqi2gOL9OYWzApXovjx8-42" value="&lt;p class=&quot;MsoNormal&quot;&gt;&lt;span style=&quot;font-size: 12pt; background-color: initial;&quot;&gt;查询实际工资&lt;/span&gt;&lt;/p&gt;" style="rounded=0;whiteSpace=wrap;html=1;fontSize=15;" vertex="1" parent="dNxyNK7c78bLwvsdeMH5-11">
          <mxGeometry x="414.5" y="275" width="40" height="100" as="geometry" />
        </mxCell>
        <mxCell id="nqi2gOL9OYWzApXovjx8-44" value="员工&lt;br&gt;-&lt;br&gt;部门&lt;br&gt;视图" style="rounded=0;whiteSpace=wrap;html=1;fontFamily=Helvetica;fontSize=15;" vertex="1" parent="dNxyNK7c78bLwvsdeMH5-11">
          <mxGeometry x="610" y="270" width="49" height="100" as="geometry" />
        </mxCell>
      </root>
    </mxGraphModel>
  </diagram>
</mxfile>
